<svg width="16" height="17" viewBox="0 0 16 17" fill="none" xmlns="http://www.w3.org/2000/svg">
<path d="M8 4.49967C7.63333 4.49967 7.31944 4.36912 7.05833 4.10801C6.79722 3.8469 6.66667 3.53301 6.66667 3.16634C6.66667 2.79967 6.79722 2.48579 7.05833 2.22467C7.31944 1.96356 7.63333 1.83301 8 1.83301C8.36667 1.83301 8.68056 1.96356 8.94167 2.22467C9.20278 2.48579 9.33333 2.79967 9.33333 3.16634C9.33333 3.53301 9.20278 3.8469 8.94167 4.10801C8.68056 4.36912 8.36667 4.49967 8 4.49967ZM6 15.1663V6.49967H2V5.16634H14V6.49967H10V15.1663H8.66667V11.1663H7.33333V15.1663H6Z" fill="#878787"/>
</svg>
