<svg width="16" height="17" viewBox="0 0 16 17" fill="none" xmlns="http://www.w3.org/2000/svg">
<path d="M8.00016 15.1663C7.08905 15.1663 6.22794 14.9913 5.41683 14.6413C4.60572 14.2913 3.89739 13.8136 3.29183 13.208C2.68627 12.6025 2.2085 11.8941 1.8585 11.083C1.5085 10.2719 1.3335 9.41079 1.3335 8.49967C1.3335 7.57745 1.5085 6.71356 1.8585 5.90801C2.2085 5.10245 2.68627 4.3969 3.29183 3.79134C3.89739 3.18579 4.60572 2.70801 5.41683 2.35801C6.22794 2.00801 7.08905 1.83301 8.00016 1.83301C8.92239 1.83301 9.78627 2.00801 10.5918 2.35801C11.3974 2.70801 12.1029 3.18579 12.7085 3.79134C13.3141 4.3969 13.7918 5.10245 14.1418 5.90801C14.4918 6.71356 14.6668 7.57745 14.6668 8.49967C14.6668 9.41079 14.4918 10.2719 14.1418 11.083C13.7918 11.8941 13.3141 12.6025 12.7085 13.208C12.1029 13.8136 11.3974 14.2913 10.5918 14.6413C9.78627 14.9913 8.92239 15.1663 8.00016 15.1663ZM8.00016 13.7997C8.28905 13.3997 8.53905 12.983 8.75016 12.5497C8.96127 12.1163 9.1335 11.6552 9.26683 11.1663H6.7335C6.86683 11.6552 7.03905 12.1163 7.25016 12.5497C7.46127 12.983 7.71127 13.3997 8.00016 13.7997ZM6.26683 13.533C6.06683 13.1663 5.89183 12.7858 5.74183 12.3913C5.59183 11.9969 5.46683 11.5886 5.36683 11.1663H3.40016C3.72239 11.7219 4.12516 12.2052 4.6085 12.6163C5.09183 13.0275 5.64461 13.333 6.26683 13.533ZM9.7335 13.533C10.3557 13.333 10.9085 13.0275 11.3918 12.6163C11.8752 12.2052 12.2779 11.7219 12.6002 11.1663H10.6335C10.5335 11.5886 10.4085 11.9969 10.2585 12.3913C10.1085 12.7858 9.9335 13.1663 9.7335 13.533ZM2.8335 9.83301H5.10016C5.06683 9.61079 5.04183 9.39134 5.02516 9.17467C5.0085 8.95801 5.00016 8.73301 5.00016 8.49967C5.00016 8.26634 5.0085 8.04134 5.02516 7.82467C5.04183 7.60801 5.06683 7.38856 5.10016 7.16634H2.8335C2.77794 7.38856 2.73627 7.60801 2.7085 7.82467C2.68072 8.04134 2.66683 8.26634 2.66683 8.49967C2.66683 8.73301 2.68072 8.95801 2.7085 9.17467C2.73627 9.39134 2.77794 9.61079 2.8335 9.83301ZM6.4335 9.83301H9.56683C9.60016 9.61079 9.62516 9.39134 9.64183 9.17467C9.6585 8.95801 9.66683 8.73301 9.66683 8.49967C9.66683 8.26634 9.6585 8.04134 9.64183 7.82467C9.62516 7.60801 9.60016 7.38856 9.56683 7.16634H6.4335C6.40016 7.38856 6.37516 7.60801 6.3585 7.82467C6.34183 8.04134 6.3335 8.26634 6.3335 8.49967C6.3335 8.73301 6.34183 8.95801 6.3585 9.17467C6.37516 9.39134 6.40016 9.61079 6.4335 9.83301ZM10.9002 9.83301H13.1668C13.2224 9.61079 13.2641 9.39134 13.2918 9.17467C13.3196 8.95801 13.3335 8.73301 13.3335 8.49967C13.3335 8.26634 13.3196 8.04134 13.2918 7.82467C13.2641 7.60801 13.2224 7.38856 13.1668 7.16634H10.9002C10.9335 7.38856 10.9585 7.60801 10.9752 7.82467C10.9918 8.04134 11.0002 8.26634 11.0002 8.49967C11.0002 8.73301 10.9918 8.95801 10.9752 9.17467C10.9585 9.39134 10.9335 9.61079 10.9002 9.83301ZM10.6335 5.83301H12.6002C12.2779 5.27745 11.8752 4.79412 11.3918 4.38301C10.9085 3.9719 10.3557 3.66634 9.7335 3.46634C9.9335 3.83301 10.1085 4.21356 10.2585 4.60801C10.4085 5.00245 10.5335 5.41079 10.6335 5.83301ZM6.7335 5.83301H9.26683C9.1335 5.34412 8.96127 4.88301 8.75016 4.44967C8.53905 4.01634 8.28905 3.59967 8.00016 3.19967C7.71127 3.59967 7.46127 4.01634 7.25016 4.44967C7.03905 4.88301 6.86683 5.34412 6.7335 5.83301ZM3.40016 5.83301H5.36683C5.46683 5.41079 5.59183 5.00245 5.74183 4.60801C5.89183 4.21356 6.06683 3.83301 6.26683 3.46634C5.64461 3.66634 5.09183 3.9719 4.6085 4.38301C4.12516 4.79412 3.72239 5.27745 3.40016 5.83301Z" fill="#878787"/>
</svg>
