<svg width="120" height="29" viewBox="0 0 120 29" fill="none" xmlns="http://www.w3.org/2000/svg">
<path d="M20.659 21.8196C20.5679 22.6396 20.082 23.0495 19.2013 23.0495C18.7457 23.0495 18.3813 22.9129 18.108 22.6396C17.8498 22.3662 17.7208 21.9714 17.7208 21.4551C17.7208 20.5744 17.7587 19.633 17.8346 18.6307C17.9258 17.6134 18.032 16.5884 18.1535 15.5558C18.2902 14.5232 18.4193 13.5362 18.5407 12.5948C17.9941 13.3844 17.4171 14.1968 16.8097 15.0319C16.2023 15.8671 15.5949 16.6795 14.9875 17.4691C14.3801 18.2587 13.7955 18.9724 13.2336 19.6102C12.687 20.2328 12.1859 20.7339 11.7303 21.1135C11.2748 21.4779 10.8952 21.6601 10.5915 21.6601C9.86258 21.6601 9.23241 21.3944 8.70094 20.8629C8.16947 20.3163 7.90373 19.6254 7.90373 18.7902C7.90373 18.5017 7.9341 18.1145 7.99484 17.6285C8.05558 17.1274 8.1315 16.596 8.22261 16.0341C8.31372 15.4723 8.38965 14.9408 8.45039 14.4397C8.51113 13.9386 8.5415 13.5438 8.5415 13.2553C8.5415 13.2553 8.5415 13.2401 8.5415 13.2097C8.55668 13.1338 8.5415 13.0959 8.49594 13.0959C8.4352 13.0959 8.26817 13.3009 7.99484 13.7108C7.72151 14.1057 7.38744 14.6219 6.99264 15.2597C6.59783 15.8975 6.18025 16.5656 5.73988 17.2641C5.31471 17.9626 4.91231 18.6156 4.53269 19.223C4.16825 19.8304 3.86455 20.3011 3.62159 20.6352C3.28753 21.1514 2.97624 21.4779 2.68772 21.6146C2.39921 21.7512 2.06514 21.8196 1.68552 21.8196C1.15405 21.8196 0.736467 21.6449 0.432769 21.2957C0.144256 20.9313 0 20.4226 0 19.7696C0 19.4963 0.0455547 19.0711 0.136664 18.4941C0.242958 17.9171 0.37203 17.2793 0.523878 16.5808C0.675727 15.8671 0.827576 15.1762 0.979425 14.5081C1.14646 13.8247 1.29071 13.2477 1.41219 12.777C1.54886 12.1544 1.73867 11.7216 1.98163 11.4787C2.23977 11.2205 2.56624 11.0915 2.96105 11.0915C3.88733 11.0915 4.35047 11.547 4.35047 12.4581C4.35047 12.6251 4.29732 12.8985 4.19103 13.2781C4.08473 13.6577 3.95566 14.0981 3.80381 14.5992C3.65196 15.1003 3.49252 15.6165 3.32549 16.148C3.15846 16.6643 3.02179 17.1502 2.9155 17.6058C3.27993 16.968 3.67474 16.2847 4.09992 15.5558C4.52509 14.8269 4.95786 14.1132 5.39823 13.4147C5.85377 12.7162 6.30173 12.0785 6.74209 11.5014C7.19763 10.9244 7.64559 10.4689 8.08595 10.1348C8.52631 9.78556 8.9439 9.61093 9.3387 9.61093C9.73351 9.61093 10.1207 9.75519 10.5003 10.0437C10.88 10.317 11.1913 10.6739 11.4342 11.1142C11.6924 11.5394 11.8214 11.995 11.8214 12.4809C11.8214 12.9364 11.7607 13.4831 11.6392 14.1208C11.5177 14.7586 11.3811 15.4267 11.2292 16.1252C11.0774 16.8237 10.9711 17.5071 10.9103 18.1752C11.4266 17.5982 11.9733 16.9452 12.5503 16.2164C13.1273 15.4723 13.7195 14.7055 14.3269 13.9158C14.9343 13.1262 15.5265 12.3594 16.1036 11.6153C16.6958 10.8713 17.2424 10.1955 17.7435 9.58815C18.2598 8.98076 18.7154 8.50243 19.1102 8.15318C19.505 7.78874 19.8087 7.60652 20.0213 7.60652C20.6438 7.60652 21.1298 7.77356 21.479 8.10763C21.8435 8.42651 22.0257 8.98835 22.0257 9.79315C22.0257 10.2942 21.9877 10.9472 21.9118 11.752C21.851 12.5568 21.7599 13.4299 21.6385 14.3714C21.5322 15.2977 21.4107 16.2391 21.274 17.1958C21.1525 18.1372 21.0387 19.0104 20.9324 19.8152C20.8261 20.62 20.735 21.2881 20.659 21.8196Z" fill="#1D1D1D"/>
<path d="M28.861 23.0951C27.7829 23.0951 26.9173 22.7155 26.2644 21.9562C25.6114 21.1818 25.285 20.1492 25.285 18.8585C25.285 18.4485 25.3381 18.0309 25.4444 17.6058C25.5659 17.1806 25.7101 16.7858 25.8772 16.4213C25.7861 16.2847 25.7101 16.1101 25.6494 15.8975C25.6038 15.6697 25.5811 15.404 25.5811 15.1003C25.5811 14.1132 25.7557 13.2097 26.1049 12.3898C26.4542 11.5546 26.9249 10.8333 27.5171 10.2259C28.1094 9.61852 28.7623 9.14779 29.476 8.81372C30.1897 8.47965 30.911 8.31262 31.6398 8.31262C32.885 8.31262 33.9024 8.73021 34.692 9.56537C35.4968 10.4005 35.8992 11.6989 35.8992 13.4603C35.8992 14.341 35.7625 15.2369 35.4892 16.148C35.2159 17.0591 34.8438 17.9322 34.3731 18.7674C33.9176 19.5874 33.3861 20.3239 32.7787 20.9768C32.1865 21.6298 31.5487 22.146 30.8654 22.5257C30.1973 22.9053 29.5291 23.0951 28.861 23.0951ZM28.4966 15.3964C28.5725 15.5634 28.6105 15.7608 28.6105 15.9886C28.6105 16.2164 28.5649 16.4517 28.4738 16.6947C28.3827 16.9376 28.2916 17.2641 28.2005 17.6741C28.1094 18.0689 28.0638 18.6383 28.0638 19.3824C28.0638 19.5798 28.0866 19.7468 28.1321 19.8835C28.1929 20.005 28.3219 20.0657 28.5193 20.0657C29.0356 20.0657 29.5215 19.8987 29.9771 19.5646C30.4478 19.2306 30.8654 18.7902 31.2298 18.2435C31.6095 17.6969 31.9283 17.0895 32.1865 16.4213C32.4598 15.738 32.6648 15.0471 32.8015 14.3486C32.9533 13.6349 33.0293 12.9744 33.0293 12.367C33.0293 11.9722 32.9533 11.6989 32.8015 11.547C32.6496 11.3952 32.3839 11.3192 32.0043 11.3192C31.488 11.3192 30.9565 11.4863 30.4099 11.8203C29.8784 12.1392 29.4304 12.5796 29.066 13.1414C28.7016 13.6881 28.5193 14.3106 28.5193 15.0092C28.5193 15.1458 28.5117 15.2749 28.4966 15.3964Z" fill="#1D1D1D"/>
<path d="M38.6109 12.572C38.1402 12.5112 37.753 12.3898 37.4493 12.2075C37.1456 12.0101 37.0013 11.6988 37.0165 11.2737C37.0469 10.8789 37.1836 10.5904 37.4265 10.4081C37.6847 10.2259 38.0187 10.1348 38.4287 10.1348C39.2335 10.1348 40.0231 10.1348 40.7976 10.1348C41.572 10.1348 42.3236 10.1348 43.0525 10.1348C43.4321 8.37336 43.9181 6.74099 44.5103 5.23768C45.1025 3.7192 45.763 2.39811 46.4919 1.27443C46.8108 0.758143 47.2739 0.5 47.8813 0.5C48.1091 0.5 48.2761 0.606294 48.3824 0.818882C48.4887 1.01629 48.5419 1.28202 48.5419 1.61609C48.5419 1.76794 48.4735 2.10201 48.3369 2.61829C48.2154 3.11939 48.0483 3.75716 47.8358 4.53159C47.6232 5.30602 47.3878 6.17155 47.1297 7.1282C46.8867 8.08485 46.6437 9.07187 46.4008 10.0893C47.9952 10.0741 49.4757 10.0437 50.8424 9.99814C52.2242 9.95259 53.5073 9.90703 54.6917 9.86148C55.3599 8.52521 55.9976 7.14339 56.605 5.71601C56.8935 4.86565 57.1593 4.15196 57.4022 3.57494C57.6604 2.99791 57.8806 2.62588 58.0628 2.45885C58.2754 2.23108 58.4728 2.08682 58.655 2.02608C58.8372 1.95016 59.0042 1.91219 59.1561 1.91219C59.4142 1.91219 59.6344 2.0033 59.8166 2.18552C60.014 2.36774 60.1127 2.68662 60.1127 3.14217C60.1127 3.24846 60.0368 3.60531 59.885 4.2127C59.7331 4.80491 59.5281 5.57175 59.27 6.51321C59.0118 7.45468 58.7233 8.50243 58.4044 9.65648C59.68 9.58056 60.7733 9.50463 61.6844 9.42871C62.6106 9.35279 63.3623 9.29205 63.9393 9.24649C64.3493 9.20094 64.6682 9.17057 64.896 9.15538C65.1389 9.1402 65.2984 9.1326 65.3743 9.1326C66.0424 9.16298 66.3537 9.51223 66.3082 10.1804C66.293 10.6663 66.0348 10.9928 65.5337 11.1598C64.9567 11.4179 63.9621 11.6533 62.5499 11.8659C61.1377 12.0633 59.5053 12.2303 57.6528 12.367C57.2732 13.7336 56.8859 15.1003 56.4911 16.4669C56.1115 17.8335 55.7547 19.1091 55.4206 20.2935C55.0865 21.4627 54.8056 22.4422 54.5778 23.2318H54.6006C54.4184 23.9758 53.9629 24.3479 53.234 24.3479C52.8847 24.3479 52.5962 24.2416 52.3684 24.029C52.1407 23.8316 52.0268 23.5051 52.0268 23.0495C52.0268 22.9584 52.0951 22.6016 52.2318 21.979C52.3684 21.3412 52.5507 20.5289 52.7784 19.5418C53.0214 18.5396 53.2947 17.4463 53.5984 16.2619C52.7936 17.5526 51.966 18.6839 51.1157 19.6557C50.2805 20.6276 49.4605 21.3868 48.6557 21.9335C47.8509 22.4801 47.0993 22.7534 46.4008 22.7534C45.1101 22.7534 44.0775 22.3662 43.3031 21.5918C42.5286 20.8174 42.1414 19.7696 42.1414 18.4485C42.1414 17.4919 42.1718 16.5428 42.2325 15.6014C42.3085 14.6447 42.4148 13.7108 42.5514 12.7998C41.777 12.7846 41.0557 12.7618 40.3876 12.7314C39.7194 12.6859 39.1272 12.6327 38.6109 12.572ZM53.1884 12.6403C50.6677 12.7618 48.2078 12.8225 45.8086 12.8225C45.596 13.8703 45.4214 14.8877 45.2847 15.8747C45.148 16.8465 45.0797 17.7197 45.0797 18.4941C45.0797 18.9496 45.1936 19.3217 45.4214 19.6102C45.6491 19.8835 46.0212 20.0202 46.5374 20.0202C47.0993 20.0202 47.7371 19.7089 48.4507 19.0863C49.1796 18.4485 49.9465 17.5754 50.7513 16.4669C51.5561 15.3584 52.3684 14.0829 53.1884 12.6403Z" fill="#1D1D1D"/>
<path d="M66.8306 23.0951C65.7525 23.0951 64.887 22.7155 64.234 21.9562C63.5811 21.1818 63.2546 20.1492 63.2546 18.8585C63.2546 18.4485 63.3077 18.0309 63.414 17.6058C63.5355 17.1806 63.6798 16.7858 63.8468 16.4213C63.7557 16.2847 63.6798 16.1101 63.619 15.8975C63.5735 15.6697 63.5507 15.404 63.5507 15.1003C63.5507 14.1132 63.7253 13.2097 64.0746 12.3898C64.4238 11.5546 64.8945 10.8333 65.4868 10.2259C66.079 9.61852 66.7319 9.14779 67.4456 8.81372C68.1593 8.47965 68.8806 8.31262 69.6095 8.31262C70.8546 8.31262 71.872 8.73021 72.6616 9.56537C73.4664 10.4005 73.8688 11.6989 73.8688 13.4603C73.8688 14.341 73.7321 15.2369 73.4588 16.148C73.1855 17.0591 72.8135 17.9322 72.3427 18.7674C71.8872 19.5874 71.3557 20.3239 70.7483 20.9768C70.1561 21.6298 69.5183 22.146 68.835 22.5257C68.1669 22.9053 67.4988 23.0951 66.8306 23.0951ZM66.4662 15.3964C66.5421 15.5634 66.5801 15.7608 66.5801 15.9886C66.5801 16.2164 66.5345 16.4517 66.4434 16.6947C66.3523 16.9376 66.2612 17.2641 66.1701 17.6741C66.079 18.0689 66.0334 18.6383 66.0334 19.3824C66.0334 19.5798 66.0562 19.7468 66.1017 19.8835C66.1625 20.005 66.2916 20.0657 66.489 20.0657C67.0052 20.0657 67.4912 19.8987 67.9467 19.5646C68.4174 19.2306 68.835 18.7902 69.1995 18.2435C69.5791 17.6969 69.898 17.0895 70.1561 16.4213C70.4294 15.738 70.6344 15.0471 70.7711 14.3486C70.9229 13.6349 70.9989 12.9744 70.9989 12.367C70.9989 11.9722 70.9229 11.6989 70.7711 11.547C70.6192 11.3952 70.3535 11.3192 69.9739 11.3192C69.4576 11.3192 68.9261 11.4863 68.3795 11.8203C67.848 12.1392 67.4 12.5796 67.0356 13.1414C66.6712 13.6881 66.489 14.3106 66.489 15.0092C66.489 15.1458 66.4814 15.2749 66.4662 15.3964Z" fill="#1D1D1D"/>
<path d="M73.8272 28.425C72.9768 28.425 72.2783 28.2428 71.7317 27.8783C71.1698 27.5291 70.8889 27.0128 70.8889 26.3295C70.8889 25.8891 71.1167 25.4791 71.5722 25.0995C72.0126 24.7199 72.6276 24.3327 73.4172 23.9379C74.2068 23.5582 75.1255 23.1331 76.1732 22.6623C76.4162 21.8272 76.6667 20.7414 76.9249 19.4052C77.1982 18.0537 77.4943 16.3682 77.8132 14.3486C77.965 13.3616 78.1093 12.5948 78.246 12.0481C78.3826 11.5014 78.5193 11.1066 78.656 10.8637C78.7926 10.6207 78.9293 10.4765 79.066 10.4309C79.2178 10.3702 79.3772 10.3398 79.5443 10.3398C79.7113 10.3398 79.9467 10.4309 80.2504 10.6131C80.5541 10.7802 80.8274 11.0155 81.0704 11.3192C81.3133 11.6077 81.4348 11.9494 81.4348 12.3442C81.4348 12.5568 81.3968 12.8681 81.3209 13.2781C81.245 13.6881 81.1159 14.136 80.9337 14.6219C80.7515 15.1079 80.5009 15.571 80.182 16.0114C79.7569 18.1372 79.3621 19.9215 78.9976 21.364C80.3339 20.6959 81.617 19.9518 82.847 19.1318C84.077 18.2967 85.102 17.3097 85.9219 16.1708C86.0434 16.0189 86.1573 15.9051 86.2636 15.8291C86.3699 15.7532 86.5141 15.7153 86.6964 15.7153C86.9545 15.7153 87.1443 15.8064 87.2658 15.9886C87.3873 16.1708 87.448 16.4062 87.448 16.6947C87.448 17.3324 87.1823 17.9702 86.6508 18.608C86.1345 19.2457 85.4284 19.8835 84.5325 20.5213C83.6366 21.1438 82.6344 21.7512 81.5259 22.3435C80.4326 22.9508 79.3089 23.5431 78.1549 24.1201C77.7449 25.3197 77.3197 26.2232 76.8793 26.8306C76.4542 27.4532 75.991 27.8707 75.4899 28.0833C74.9888 28.3111 74.4346 28.425 73.8272 28.425ZM79.9087 8.42651C79.4987 8.42651 79.1495 8.30503 78.861 8.06207C78.5724 7.80393 78.4282 7.39394 78.4282 6.8321C78.4282 6.4221 78.5345 6.04248 78.7471 5.69323C78.9748 5.32879 79.2634 5.04028 79.6126 4.82769C79.9619 4.6151 80.3263 4.50881 80.7059 4.50881C81.283 4.50881 81.7537 4.67584 82.1181 5.00991C82.4977 5.34398 82.6875 5.76915 82.6875 6.28544C82.6875 6.75617 82.5357 7.15098 82.232 7.46986C81.9283 7.77356 81.5487 7.92541 81.0931 7.92541C81.0779 7.92541 81.0628 7.92541 81.0476 7.92541C81.0324 7.92541 81.0172 7.92541 81.002 7.92541C80.7591 8.138 80.5541 8.27466 80.387 8.3354C80.2352 8.39614 80.0757 8.42651 79.9087 8.42651Z" fill="#1D1D1D"/>
<path d="M86.9738 22.6851C86.5486 22.6851 86.169 22.5409 85.8349 22.2523C85.516 21.9638 85.3566 21.4931 85.3566 20.8401C85.3566 20.4909 85.4021 19.9974 85.4932 19.3596C85.5995 18.7219 85.7362 18.0309 85.9032 17.2869C86.0703 16.5276 86.2525 15.776 86.4499 15.0319C86.6625 14.2879 86.8675 13.6273 87.0649 13.0503C87.2623 12.4581 87.4369 12.0177 87.5888 11.7292C87.7862 11.38 87.9684 11.1674 88.1354 11.0915C88.3176 11.0003 88.4923 10.9548 88.6593 10.9548C88.963 10.9548 89.2439 11.0459 89.5021 11.2281C89.7754 11.4103 89.9121 11.8127 89.9121 12.4353C89.9121 12.6783 89.8665 13.0731 89.7754 13.6197C89.6843 14.1512 89.5704 14.7738 89.4337 15.4875C89.2971 16.2012 89.1452 16.9376 88.9782 17.6969C88.8263 18.4561 88.6745 19.1774 88.5226 19.8607C88.386 20.5289 88.2721 21.0907 88.181 21.5462C88.105 21.9259 87.9456 22.2068 87.7027 22.389C87.4749 22.5864 87.2319 22.6851 86.9738 22.6851ZM89.5932 8.69984C89.0921 8.69984 88.6289 8.55558 88.2038 8.26707C87.7786 7.96337 87.566 7.50023 87.566 6.87765C87.566 6.36136 87.6951 5.94378 87.9532 5.6249C88.2113 5.30602 88.515 5.07824 88.8643 4.94158C89.2287 4.78973 89.5476 4.7138 89.8209 4.7138C90.0943 4.7138 90.398 4.77454 90.732 4.89602C91.0661 5.00232 91.3546 5.20731 91.5976 5.51101C91.8557 5.79952 91.9848 6.21711 91.9848 6.76376C91.9848 7.1282 91.8557 7.46227 91.5976 7.76597C91.3394 8.05448 91.0206 8.28225 90.6409 8.44929C90.2765 8.61632 89.9272 8.69984 89.5932 8.69984Z" fill="#1D1D1D"/>
<path d="M96.5342 28.6072C95.6838 28.6072 94.9094 28.5541 94.2109 28.4478C93.5124 28.3567 92.8291 28.2048 92.161 27.9922C91.4928 27.7796 90.7715 27.4987 89.9971 27.1495C89.6782 26.9976 89.4125 26.8382 89.1999 26.6711C88.9873 26.5041 88.881 26.2536 88.881 25.9195C88.881 25.4336 89.0329 25.0615 89.3366 24.8034C89.6251 24.5604 90.0275 24.439 90.5438 24.439C90.8171 24.439 91.1664 24.5301 91.5915 24.7123C92.0167 24.9097 92.5026 25.1299 93.0493 25.3728C93.6111 25.631 94.2337 25.8512 94.917 26.0334C95.6003 26.2308 96.3368 26.3295 97.1264 26.3295C97.9312 26.3295 98.6829 25.9954 99.3814 25.3273C100.08 24.6591 100.642 23.7177 101.067 22.5029C101.507 21.3033 101.727 19.8835 101.727 18.2435C101.727 17.8639 101.72 17.4539 101.705 17.0136C101.689 16.558 101.674 16.0797 101.659 15.5786C101.112 16.6112 100.52 17.5754 99.8825 18.4713C99.2447 19.3672 98.5842 20.0961 97.9008 20.6579C97.2327 21.2046 96.557 21.4779 95.8737 21.4779C95.0385 21.4779 94.4311 21.2805 94.0515 20.8857C93.687 20.4757 93.5048 19.8304 93.5048 18.9496C93.5048 18.2056 93.558 17.3932 93.6643 16.5125C93.7857 15.6165 93.9452 14.713 94.1426 13.802C94.34 12.8909 94.5678 12.0253 94.8259 11.2053C95.0992 10.3702 95.3877 9.64889 95.6914 9.0415C95.9192 8.60113 96.2685 8.38095 96.7392 8.38095C97.0429 8.38095 97.3466 8.52521 97.6503 8.81372C97.9692 9.10223 98.1286 9.48945 98.1286 9.97537C98.1286 10.2487 98.0603 10.6435 97.9236 11.1598C97.787 11.6761 97.6199 12.2607 97.4225 12.9136C97.2403 13.5514 97.0505 14.2271 96.8531 14.9408C96.6557 15.6393 96.4886 16.3302 96.352 17.0136C96.2153 17.6817 96.147 18.2891 96.147 18.8357C96.147 18.8965 96.1925 18.9269 96.2836 18.9269C96.4659 18.9269 96.7088 18.775 97.0125 18.4713C97.3314 18.1524 97.6807 17.7424 98.0603 17.2413C98.4551 16.725 98.8499 16.1632 99.2447 15.5558C99.6547 14.9332 100.05 14.3182 100.429 13.7108C100.809 13.1035 101.15 12.5492 101.454 12.0481C101.409 11.8051 101.378 11.5926 101.363 11.4103C101.363 11.2129 101.363 11.0459 101.363 10.9092C101.363 10.2867 101.469 9.77037 101.682 9.36038C101.91 8.95039 102.35 8.74539 103.003 8.74539C103.428 8.74539 103.755 8.90483 103.982 9.22371C104.21 9.52741 104.324 9.96018 104.324 10.522C104.324 10.765 104.286 11.0459 104.21 11.3648C104.134 11.6685 103.982 12.1544 103.755 12.8225L104.005 12.1164C104.142 13.4831 104.256 14.6979 104.347 15.7608C104.453 16.8237 104.506 17.8791 104.506 18.9269C104.506 20.9009 104.172 22.6092 103.504 24.0518C102.851 25.5095 101.925 26.6332 100.725 27.4228C99.5408 28.2124 98.1438 28.6072 96.5342 28.6072Z" fill="#1D1D1D"/>
<path d="M116.811 23.3684C116.462 23.3684 116.143 23.2242 115.855 22.9357C115.581 22.6623 115.445 22.1992 115.445 21.5462C115.445 21.0603 115.483 20.3846 115.558 19.5191C115.65 18.6383 115.817 17.5071 116.06 16.1252C115.528 17.2186 114.974 18.1904 114.397 19.0407C113.82 19.8911 113.25 20.5592 112.688 21.0451C112.142 21.5159 111.618 21.7512 111.117 21.7512C110.312 21.7512 109.674 21.5083 109.204 21.0224C108.733 20.5213 108.497 19.5874 108.497 18.2208C108.497 17.5678 108.551 16.8313 108.657 16.0114C108.778 15.1914 108.93 14.3714 109.112 13.5514C109.295 12.7314 109.477 12.0025 109.659 11.3648C109.857 10.7118 110.031 10.2259 110.183 9.90703C110.304 9.63371 110.456 9.42112 110.639 9.26927C110.836 9.11742 111.086 9.0415 111.39 9.0415C111.876 9.0415 112.248 9.20094 112.506 9.51982C112.764 9.8387 112.893 10.1652 112.893 10.4992C112.893 10.7574 112.833 11.1294 112.711 11.6153C112.605 12.1012 112.468 12.6403 112.301 13.2325C112.149 13.8247 111.99 14.4321 111.823 15.0547C111.656 15.6773 111.512 16.2619 111.39 16.8086C111.284 17.3552 111.231 17.8184 111.231 18.198C111.231 18.6687 111.413 18.9041 111.777 18.9041C111.99 18.9041 112.263 18.6991 112.597 18.2891C112.947 17.8791 113.311 17.3324 113.691 16.6491C114.085 15.9506 114.48 15.1914 114.875 14.3714C115.285 13.5362 115.657 12.6935 115.991 11.8431C116.34 10.9776 116.637 10.1804 116.88 9.45149C117.031 8.99594 117.236 8.67706 117.494 8.49484C117.753 8.31262 118.049 8.22151 118.383 8.22151C118.899 8.22151 119.294 8.36577 119.567 8.65428C119.856 8.94279 120 9.35279 120 9.88426C120 10.1272 119.962 10.5372 119.886 11.1142C119.81 11.6913 119.711 12.367 119.59 13.1414C119.484 13.9158 119.355 14.7358 119.203 15.6014C119.051 16.4669 118.899 17.3173 118.747 18.1524C118.611 18.9876 118.474 19.7544 118.337 20.4529C118.201 21.1363 118.087 21.6829 117.996 22.0929C117.844 22.7003 117.662 23.0647 117.449 23.1862C117.236 23.3077 117.024 23.3684 116.811 23.3684ZM117.563 6.90043C117.517 6.90043 117.297 6.92321 116.902 6.96876C116.507 7.01431 116.029 7.06746 115.467 7.1282C114.905 7.18894 114.336 7.24968 113.759 7.31042C113.182 7.37116 112.673 7.42431 112.233 7.46986C111.808 7.51542 111.542 7.53819 111.436 7.53819C110.904 7.53819 110.471 7.44708 110.137 7.26486C109.803 7.08265 109.636 6.79413 109.636 6.39933C109.636 6.05007 109.773 5.78434 110.046 5.60212C110.335 5.4199 110.714 5.32879 111.185 5.32879C111.398 5.32879 111.717 5.29842 112.142 5.23768C112.582 5.16176 113.083 5.07824 113.645 4.98713C114.207 4.88084 114.769 4.77454 115.331 4.66825C115.908 4.56196 116.439 4.47844 116.925 4.4177C117.426 4.34177 117.821 4.30381 118.109 4.30381C118.671 4.30381 119.127 4.42529 119.476 4.66825C119.825 4.89602 120 5.25287 120 5.73878C120 6.16396 119.848 6.49044 119.544 6.71821C119.256 6.94598 118.869 7.05987 118.383 7.05987C118.231 7.05987 118.094 7.03709 117.973 6.99154C117.867 6.9308 117.73 6.90043 117.563 6.90043Z" fill="#1D1D1D"/>
</svg>
